<?xml version="1.0" standalone="no"?>
<!DOCTYPE svg PUBLIC "-//W3C//DTD SVG 20010904//EN"
 "http://www.w3.org/TR/2001/REC-SVG-20010904/DTD/svg10.dtd">
<svg version="1.0" xmlns="http://www.w3.org/2000/svg"
 width="1980.000000pt" height="1980.000000pt" viewBox="0 0 1980.000000 1980.000000"
 preserveAspectRatio="xMidYMid meet">
<metadata>
Created by potrace 1.14, written by Peter Selinger 2001-2017
</metadata>
<g transform="translate(0.000000,1980.000000) scale(0.100000,-0.100000)"
fill="#000000" stroke="none">
<path d="M15020 15145 c-41 -25 -82 -49 -90 -54 -16 -10 -682 -426 -813 -507
-42 -27 -85 -53 -95 -59 -10 -5 -31 -19 -47 -30 -17 -11 -39 -25 -50 -32 -119
-73 -238 -146 -370 -230 -222 -140 -296 -183 -316 -183 -11 0 -100 39 -197 86
-243 117 -363 149 -552 146 -193 -4 -297 -31 -710 -187 -113 -42 -356 -128
-540 -190 -416 -141 -402 -135 -505 -189 -85 -44 -206 -128 -235 -163 -8 -10
-53 -65 -100 -123 -95 -118 -103 -127 -256 -295 -171 -188 -260 -270 -381
-350 -169 -114 -262 -211 -321 -335 -33 -69 -36 -83 -37 -165 0 -79 3 -97 28
-147 33 -68 114 -145 192 -183 60 -30 72 -40 76 -70 5 -32 -9 -59 -38 -76 -16
-10 -88 -56 -162 -103 -73 -47 -137 -86 -142 -86 -5 0 -9 -4 -9 -10 0 -5 -7
-10 -15 -10 -8 0 -15 -3 -15 -8 0 -4 -9 -12 -21 -17 -11 -6 -120 -74 -242
-152 -260 -166 -382 -244 -824 -527 -181 -116 -371 -237 -423 -271 -52 -34
-160 -103 -240 -154 -80 -51 -241 -154 -358 -229 -117 -75 -300 -193 -407
-262 -107 -69 -266 -171 -353 -227 -86 -56 -202 -130 -257 -166 -55 -35 -183
-118 -285 -184 -102 -66 -230 -148 -285 -184 -225 -145 -308 -199 -1000 -651
-509 -333 -628 -411 -635 -419 -3 -3 -9 -8 -15 -10 -20 -8 -340 -224 -343
-231 -2 -5 -8 -8 -12 -8 -5 0 -38 -20 -74 -45 -64 -44 -86 -53 -86 -37 0 8
-147 160 -205 212 -22 20 -71 59 -110 88 -38 29 -74 56 -80 60 -74 56 -264
155 -390 205 -124 48 -220 75 -370 103 -211 39 -528 38 -705 -2 -14 -3 -36 -8
-50 -11 -231 -42 -511 -167 -735 -328 -332 -238 -582 -581 -715 -985 -25 -75
-77 -300 -78 -340 -1 -8 -4 -49 -8 -90 -13 -126 -7 -363 12 -465 2 -16 7 -39
8 -50 17 -90 38 -169 78 -290 221 -656 790 -1152 1476 -1285 283 -55 542 -48
872 26 135 29 423 156 560 246 429 280 734 713 848 1204 12 49 23 109 27 134
3 25 9 74 14 110 5 36 7 144 5 240 -4 174 -6 211 -18 266 -3 16 -8 43 -11 59
-34 211 -156 513 -288 710 -29 44 -56 85 -60 92 -5 8 7 19 35 33 24 12 75 38
113 59 139 75 232 124 345 184 63 33 146 77 183 98 38 22 71 39 73 39 2 0 62
31 132 68 70 38 172 93 227 122 55 29 132 70 170 90 39 21 111 59 160 85 50
26 155 83 235 125 80 43 188 100 240 128 52 27 120 63 150 79 30 17 109 58
175 93 66 34 143 75 170 90 28 15 104 55 170 90 66 35 138 73 160 85 22 13 83
45 135 73 52 27 124 65 160 84 36 19 110 59 165 88 55 29 165 88 245 130 80
42 190 101 245 130 96 51 159 84 318 169 39 21 113 60 162 86 88 46 188 99
330 175 39 21 111 59 160 85 50 26 122 65 160 85 39 21 115 61 170 90 55 29
123 65 150 80 28 15 97 52 155 82 58 31 134 71 170 90 473 253 449 242 484
229 26 -11 35 -28 42 -86 17 -138 29 -184 69 -270 75 -158 202 -236 388 -237
78 -1 87 1 167 41 46 24 126 69 178 102 52 32 96 59 97 59 7 0 -3 -35 -20 -76
-9 -21 -16 -39 -15 -39 5 0 -84 -230 -92 -239 -4 -6 -8 -16 -8 -24 0 -8 -7
-28 -14 -45 -8 -18 -44 -104 -80 -192 -68 -170 -92 -228 -105 -260 -25 -59
-96 -298 -108 -364 -2 -14 -8 -45 -13 -68 -23 -101 -31 -250 -18 -318 33 -169
95 -302 183 -391 113 -115 251 -152 410 -109 91 25 102 18 145 -91 108 -277
292 -395 521 -334 139 38 322 167 444 314 22 26 45 53 51 60 22 23 100 151
126 206 73 152 104 265 115 424 11 160 57 165 264 31 107 -69 204 -174 273
-296 33 -57 73 -126 90 -154 43 -69 245 -375 257 -389 5 -6 35 -47 66 -91 32
-44 60 -82 63 -85 3 -3 21 -27 40 -55 19 -27 41 -58 50 -68 36 -44 46 -57 65
-83 65 -90 320 -396 415 -498 226 -243 432 -428 577 -519 86 -54 889 -451
1063 -526 41 -18 93 -41 115 -50 212 -95 768 -285 922 -316 10 -1 47 -11 83
-20 36 -9 76 -19 90 -21 14 -3 41 -9 60 -14 36 -9 56 -14 151 -31 l57 -11 -1
-54 c-1 -89 18 -105 254 -213 40 -19 121 -56 178 -83 57 -26 105 -48 106 -48
2 0 65 -29 140 -65 76 -36 139 -65 141 -65 1 0 55 -25 119 -55 65 -30 119 -55
121 -55 2 0 60 -27 130 -60 69 -33 128 -60 129 -60 2 0 49 -22 106 -49 307
-143 311 -145 359 -138 102 13 309 154 463 312 87 90 232 279 283 370 6 11 32
56 58 100 25 44 46 86 46 93 0 6 5 12 10 12 6 0 10 5 10 11 0 6 18 49 41 96
86 182 218 573 254 751 2 9 10 47 19 83 8 37 17 78 20 90 2 13 9 44 15 69 5
25 12 59 15 75 3 17 12 73 21 125 22 131 23 138 30 195 3 28 7 59 9 71 2 12 7
57 11 100 4 43 9 81 10 84 2 3 6 46 10 95 4 50 8 106 10 125 3 31 12 183 20
330 2 30 4 112 6 181 2 117 0 129 -20 158 -12 17 -31 35 -41 41 -18 10 -476
125 -576 144 -11 2 -57 14 -104 26 -47 12 -93 24 -102 26 -10 2 -26 6 -35 8
-35 8 -118 28 -133 31 -8 2 -80 19 -160 39 -393 96 -478 116 -512 121 -50 8
-103 -18 -133 -65 -33 -53 -59 -55 -169 -12 -115 45 -298 141 -350 183 -6 5
-45 34 -86 65 -100 75 -262 239 -339 343 -153 207 -243 403 -321 701 -48 181
-144 487 -230 730 -28 80 -57 163 -64 185 -19 57 -247 679 -383 1045 -19 52
-49 122 -65 155 -87 172 -98 186 -488 576 -386 387 -507 501 -588 555 -49 32
-196 110 -489 259 -182 92 -203 111 -181 161 6 12 88 66 196 129 103 60 220
128 259 152 40 24 75 43 77 43 3 0 25 14 49 30 25 17 47 30 50 30 3 0 49 26
104 58 54 32 121 71 148 87 92 51 410 238 432 254 53 38 74 141 43 202 -33 64
-296 497 -314 518 -28 32 -76 51 -129 51 -33 0 -60 -10 -117 -45z m3318 -6710
c40 -7 157 -38 161 -41 3 -3 -31 -2 -75 0 -43 2 -102 5 -131 5 -41 1 -51 4
-47 15 6 16 54 36 66 29 5 -2 16 -6 26 -8z m-16582 -1666 c32 -30 76 -123 130
-277 69 -193 111 -252 182 -252 29 0 43 8 76 43 49 51 78 129 91 247 14 121
33 210 50 237 24 37 57 29 120 -29 32 -29 67 -67 79 -84 75 -114 191 -266 232
-306 59 -59 114 -82 186 -76 105 9 152 44 265 198 64 85 118 114 217 114 61 0
204 -8 314 -19 18 -1 48 1 66 5 l33 7 -3 -41 c-9 -152 -15 -224 -19 -246 -20
-105 -27 -138 -31 -160 -15 -71 -102 -317 -115 -326 -5 -3 -9 -14 -9 -24 0
-10 -3 -20 -7 -22 -5 -1 -21 -30 -38 -63 -67 -136 -204 -319 -329 -440 -249
-242 -574 -419 -887 -484 -87 -18 -98 -20 -158 -26 -31 -4 -67 -8 -81 -11 -32
-6 -287 -5 -320 0 -14 3 -47 7 -75 10 -182 19 -449 103 -611 192 -68 37 -168
97 -174 103 -3 4 -24 19 -48 35 -224 152 -447 419 -583 696 -93 190 -161 457
-176 683 l-6 99 29 -15 c26 -14 49 -30 94 -69 55 -48 165 -128 176 -128 7 0
29 -7 48 -16 74 -36 142 8 276 176 81 101 110 125 162 135 68 13 124 -36 212
-188 67 -116 109 -165 154 -184 39 -16 64 -10 104 25 34 31 52 70 112 242 54
154 77 202 118 242 27 27 36 30 75 25 27 -3 54 -14 69 -28z"/>
</g>
</svg>
